<?xml version="1.0" standalone="no"?>
<!DOCTYPE svg PUBLIC "-//W3C//DTD SVG 20010904//EN"
 "http://www.w3.org/TR/2001/REC-SVG-20010904/DTD/svg10.dtd">
<svg version="1.0" xmlns="http://www.w3.org/2000/svg"
 width="465.000000pt" height="112.000000pt" viewBox="0 0 465.000000 112.000000"
 preserveAspectRatio="xMidYMid meet">

<g transform="translate(0.000000,112.000000) scale(0.100000,-0.100000)"
fill="#000000" stroke="none">
<path d="M4130 1013 c0 -5 33 -20 74 -35 112 -43 142 -35 60 15 -31 19 -59 27
-90 27 -24 0 -44 -3 -44 -7z"/>
<path d="M55 866 c-3 -32 -4 -60 -1 -63 13 -13 34 9 40 41 6 30 12 36 40 41
18 4 53 3 77 -2 l44 -9 3 -179 c2 -99 0 -199 -3 -223 -6 -41 -7 -42 -46 -42
-21 0 -39 -4 -39 -10 0 -6 53 -10 140 -10 87 0 140 4 140 10 0 6 -18 10 -39
10 -26 0 -41 5 -45 16 -3 9 -6 109 -6 224 l0 207 38 7 c92 15 111 8 129 -48 5
-17 15 -32 22 -34 9 -3 11 12 9 58 l-3 63 -246 1 -247 1 -7 -59z"/>
<path d="M1830 910 c0 -5 10 -10 23 -10 63 -1 64 -1 70 -133 3 -67 3 -169 -1
-227 l-7 -105 -42 -3 c-24 -2 -43 -7 -43 -13 0 -5 59 -9 140 -9 87 0 140 4
140 10 0 6 -18 10 -39 10 -48 0 -51 6 -51 121 0 79 2 89 18 89 30 0 61 -29
118 -111 76 -108 92 -119 170 -119 36 0 64 4 64 10 0 6 -8 10 -18 10 -24 0
-56 36 -132 145 -42 59 -58 91 -49 94 24 8 57 52 63 85 11 60 -28 125 -91 152
-39 17 -333 20 -333 4z m269 -45 c16 -8 36 -30 45 -50 32 -67 -3 -128 -82
-141 l-42 -7 0 100 c0 55 3 103 7 106 11 11 42 8 72 -8z"/>
<path d="M692 759 c-65 -32 -97 -87 -97 -164 0 -115 77 -185 204 -185 135 0
213 84 198 216 -6 54 -44 107 -97 134 -55 28 -151 27 -208 -1z m158 -19 c117
-60 96 -277 -30 -305 -40 -9 -98 20 -127 64 -32 48 -32 144 0 192 21 32 77 69
105 69 7 0 31 -9 52 -20z"/>
<path d="M4407 756 c-60 -56 -42 -120 52 -186 67 -47 80 -70 57 -104 -32 -49
-109 -41 -121 13 -9 44 -40 43 -31 0 3 -17 6 -40 6 -50 0 -17 8 -19 81 -19 76
0 82 2 110 29 23 24 29 38 29 73 0 50 -16 72 -80 115 -89 60 -99 92 -39 117
42 18 69 9 81 -25 15 -43 28 -35 28 16 l0 45 -74 0 c-63 0 -76 -3 -99 -24z"/>
<path d="M1015 760 c3 -5 14 -10 24 -10 39 0 44 -24 37 -153 -8 -150 -11 -164
-43 -172 -40 -10 -18 -18 52 -19 63 -1 87 10 45 21 -18 5 -20 13 -19 92 1 141
7 142 80 6 35 -65 69 -120 74 -122 6 -1 39 53 75 122 40 79 67 120 72 112 4
-6 8 -55 8 -108 l0 -96 -32 -7 c-52 -10 -24 -18 71 -20 91 -1 112 6 67 23 -26
11 -30 31 -42 214 l-7 107 31 0 c17 0 34 5 37 10 4 6 -17 10 -57 10 l-63 0
-68 -130 c-37 -72 -72 -128 -77 -125 -9 5 -55 87 -110 193 l-32 62 -65 0 c-40
0 -62 -4 -58 -10z"/>
<path d="M2400 760 c0 -5 14 -10 30 -10 l30 0 0 -160 0 -160 -30 0 c-16 0 -30
-4 -30 -10 0 -6 87 -10 240 -10 265 0 286 4 333 59 76 91 51 226 -53 279 -42
21 -55 22 -282 22 -152 0 -238 -4 -238 -10z m258 -167 l-3 -158 -56 -3 -56 -3
-7 38 c-8 49 -8 212 0 252 6 31 7 31 66 31 l59 0 -3 -157z m201 129 c74 -37
98 -115 63 -196 -18 -39 -29 -50 -68 -68 -38 -16 -55 -19 -83 -12 l-36 9 -3
120 c-4 160 -2 165 51 165 23 0 57 -8 76 -18z"/>
<path d="M3040 760 c0 -5 14 -10 30 -10 l31 0 -3 -157 -3 -158 -25 -3 c-14 -2
-29 -8 -34 -13 -6 -5 48 -9 137 -9 165 0 197 8 240 59 76 91 51 226 -53 279
-39 20 -59 22 -182 22 -85 0 -138 -4 -138 -10z m259 -38 c74 -37 98 -115 63
-196 -18 -39 -29 -50 -68 -68 -38 -16 -55 -19 -83 -12 l-36 9 -3 120 c-4 160
-2 165 51 165 23 0 57 -8 76 -18z"/>
<path d="M3480 760 c0 -5 14 -10 30 -10 l30 0 0 -160 0 -160 -30 0 c-16 0 -30
-4 -30 -10 0 -6 58 -10 155 -10 l155 0 0 40 c0 22 0 43 1 47 0 4 -3 9 -8 10
-5 2 -14 -12 -21 -31 -10 -26 -20 -36 -42 -41 -35 -8 -92 3 -102 19 -9 14 -10
186 -2 250 6 43 9 46 35 46 16 0 29 5 29 10 0 6 -40 10 -100 10 -60 0 -100 -4
-100 -10z"/>
<path d="M3800 760 c0 -5 13 -10 29 -10 17 0 31 -6 35 -16 8 -20 8 -252 0
-281 -5 -17 -14 -23 -35 -23 -16 0 -29 -4 -29 -10 0 -6 55 -10 145 -10 l145 0
0 45 c0 54 -14 58 -30 10 -10 -30 -16 -35 -43 -35 -73 0 -77 5 -77 86 l0 74
44 0 c38 0 45 -3 50 -25 12 -46 26 -26 26 35 0 64 -10 76 -28 35 -10 -21 -19
-25 -52 -25 l-40 0 0 64 c0 70 6 76 77 76 27 0 32 -4 38 -30 9 -43 40 -41 31
1 -3 17 -6 35 -6 40 0 5 -63 9 -140 9 -87 0 -140 -4 -140 -10z"/>
<path d="M646 318 c-18 -25 -21 -48 -7 -48 8 0 41 54 41 67 0 11 -21 0 -34
-19z"/>
<path d="M704 332 c-11 -7 -34 -45 -34 -56 0 -17 22 -2 35 25 17 32 17 43 -1
31z"/>
<path d="M722 220 l-41 -120 70 0 c39 0 69 4 69 10 0 6 -22 10 -50 10 -27 0
-50 3 -50 6 0 4 14 49 30 101 33 101 35 113 21 113 -5 0 -27 -54 -49 -120z"/>
<path d="M1220 325 c-16 -20 -5 -32 14 -16 10 8 3 -24 -20 -96 -18 -59 -34
-109 -34 -110 0 -9 150 -1 155 7 4 6 -18 10 -60 10 -64 0 -66 1 -59 23 20 66
21 67 69 67 25 0 45 5 45 10 0 6 -18 10 -40 10 -45 0 -44 -1 -28 51 l11 39 69
0 c39 0 68 4 68 10 0 6 -36 10 -89 10 -67 0 -92 -4 -101 -15z"/>
<path d="M1635 329 c-10 -15 1 -23 20 -15 9 3 13 10 10 16 -8 13 -22 13 -30
-1z"/>
<path d="M2470 325 c-17 -20 -5 -32 15 -15 19 16 20 23 -19 -102 l-34 -108 59
0 c66 0 100 14 141 57 52 55 62 120 23 158 -21 22 -33 25 -98 25 -55 0 -78 -4
-87 -15z m171 -26 c29 -46 -7 -135 -65 -163 -42 -20 -106 -21 -106 -3 0 11 33
115 55 176 7 18 103 10 116 -10z"/>
<path d="M2745 329 c-10 -15 1 -23 20 -15 9 3 13 10 10 16 -8 13 -22 13 -30
-1z"/>
<path d="M2892 220 l-41 -120 70 0 c39 0 69 4 69 10 0 6 -22 10 -50 10 -27 0
-50 3 -50 6 0 4 14 49 30 101 33 101 35 113 21 113 -5 0 -27 -54 -49 -120z"/>
<path d="M3400 232 c-31 -60 -61 -107 -69 -107 -8 0 -16 -6 -19 -13 -3 -9 3
-13 19 -10 18 2 36 25 76 98 l53 95 0 -97 c0 -76 3 -98 14 -98 7 0 42 43 76
95 35 53 64 94 65 93 3 -3 -11 -112 -19 -160 -4 -19 -1 -28 8 -28 9 0 17 31
25 103 7 56 15 110 17 120 3 10 0 17 -9 17 -8 0 -43 -44 -78 -97 -62 -93 -64
-96 -70 -67 -4 16 -7 59 -8 97 -1 46 -5 67 -13 67 -7 0 -38 -49 -68 -108z"/>
<path d="M4220 314 c-6 -14 -10 -30 -10 -35 0 -5 -18 -9 -41 -9 -69 0 -131
-79 -115 -145 8 -31 48 -43 79 -23 16 12 26 12 39 4 13 -8 21 -7 30 2 9 9 8
12 -5 12 -9 0 -17 1 -17 3 0 2 16 50 35 107 40 119 38 110 25 110 -6 0 -15
-12 -20 -26z m-37 -111 c-20 -61 -39 -83 -73 -83 -31 0 -42 17 -32 52 15 51
47 77 94 78 l27 0 -16 -47z"/>
<path d="M4505 310 c-9 -16 -12 -30 -7 -30 12 0 42 34 42 48 0 22 -19 12 -35
-18z"/>
<path d="M4548 310 c-14 -25 -14 -30 -3 -30 14 0 35 29 35 49 0 20 -15 11 -32
-19z"/>
<path d="M905 237 c-37 -37 -50 -74 -41 -112 8 -31 48 -43 79 -23 16 12 26 12
39 4 13 -8 21 -7 30 2 9 9 8 12 -5 12 -21 0 -22 -7 7 78 l25 72 -51 0 c-43 0
-54 -4 -83 -33z m88 -34 c-20 -61 -39 -83 -73 -83 -31 0 -42 17 -32 52 15 51
47 77 94 78 l27 0 -16 -47z"/>
<path d="M1417 260 c-2 -8 -14 -46 -25 -84 -31 -102 -10 -109 23 -9 17 54 45
83 78 83 26 0 30 -20 12 -69 -21 -59 -19 -81 4 -81 11 0 23 5 26 10 3 6 -1 10
-10 10 -12 0 -15 5 -10 18 17 44 28 100 22 115 -7 20 -48 22 -79 6 -16 -8 -22
-8 -29 2 -6 11 -9 11 -12 -1z"/>
<path d="M1592 202 c-12 -38 -22 -76 -22 -85 0 -19 35 -24 45 -7 3 6 -1 10 -9
10 -20 0 -21 -7 8 78 18 51 21 72 12 72 -6 0 -22 -31 -34 -68z"/>
<path d="M1696 239 c-42 -36 -56 -88 -34 -121 13 -19 13 -25 -1 -49 -13 -23
-13 -30 -2 -43 19 -23 54 -20 78 6 19 21 83 196 83 226 0 8 -16 12 -45 12 -35
0 -51 -6 -79 -31z m87 -36 c-24 -74 -79 -108 -102 -64 -25 45 28 110 91 111
l27 0 -16 -47z m-37 -109 c-3 -9 -6 -19 -6 -24 0 -14 -30 -40 -46 -40 -26 0
-16 48 14 64 35 20 46 20 38 0z"/>
<path d="M1869 263 c-1 -5 -1 -11 0 -15 0 -3 -8 -32 -19 -64 -22 -62 -25 -84
-12 -84 5 0 16 25 26 56 19 61 46 94 76 94 25 0 27 -32 5 -83 -16 -40 -19 -67
-7 -67 4 0 18 29 31 65 22 63 42 85 75 85 21 0 21 -36 0 -85 -18 -44 -13 -65
16 -65 22 0 28 16 8 22 -9 3 -8 19 7 61 15 46 16 58 6 71 -15 18 -44 21 -71 6
-14 -8 -25 -7 -40 2 -15 10 -27 10 -50 1 -16 -6 -30 -7 -30 -2 0 11 -19 12
-21 2z"/>
<path d="M2166 239 c-68 -59 -55 -139 22 -139 46 0 112 63 112 108 0 67 -74
84 -134 31z m107 -10 c26 -42 -46 -118 -99 -105 -19 5 -24 13 -24 39 0 17 6
39 13 48 31 40 90 49 110 18z"/>
<path d="M2702 202 c-12 -38 -22 -76 -22 -85 0 -19 35 -24 45 -7 3 6 -1 10 -9
10 -20 0 -21 -7 8 78 18 51 21 72 12 72 -6 0 -22 -31 -34 -68z"/>
<path d="M3075 237 c-37 -37 -50 -74 -41 -112 8 -31 48 -43 79 -23 16 12 26
12 39 4 13 -8 21 -7 30 2 9 9 8 12 -5 12 -21 0 -22 -7 7 78 l25 72 -51 0 c-43
0 -54 -4 -83 -33z m88 -34 c-20 -61 -39 -83 -73 -83 -31 0 -42 17 -32 52 15
51 47 77 94 78 l27 0 -16 -47z"/>
<path d="M3699 270 c-1 -3 -3 -14 -4 -25 -2 -11 -9 -41 -16 -66 -7 -25 -9 -53
-6 -62 7 -19 48 -22 77 -7 13 7 21 7 25 0 8 -13 45 -13 45 -1 0 5 -6 11 -12
14 -10 3 -8 21 9 72 21 66 23 90 4 69 -5 -5 -16 -33 -26 -61 -17 -53 -45 -83
-77 -83 -27 0 -30 17 -12 75 14 43 15 58 6 67 -7 7 -13 10 -13 8z"/>
<path d="M3897 260 c-2 -8 -14 -46 -25 -84 -31 -102 -10 -109 23 -9 17 54 45
83 78 83 26 0 30 -20 12 -69 -21 -59 -19 -81 4 -81 11 0 23 5 26 10 3 6 -1 10
-10 10 -12 0 -15 5 -10 18 17 44 28 100 22 115 -7 20 -48 22 -79 6 -16 -8 -22
-8 -29 2 -6 11 -9 11 -12 -1z"/>
<path d="M4296 239 c-68 -59 -55 -139 22 -139 46 0 112 63 112 108 0 67 -74
84 -134 31z m107 -10 c26 -42 -46 -118 -99 -105 -19 5 -24 13 -24 39 0 17 6
39 13 48 31 40 90 49 110 18z"/>
</g>
</svg>
